<?xml version="1.0" encoding="UTF-8" standalone="no"?>
<!-- Created with Inkscape (http://www.inkscape.org/) -->

<svg
   xmlns:dc="http://purl.org/dc/elements/1.1/"
   xmlns:cc="http://creativecommons.org/ns#"
   xmlns:rdf="http://www.w3.org/1999/02/22-rdf-syntax-ns#"
   xmlns:svg="http://www.w3.org/2000/svg"
   xmlns="http://www.w3.org/2000/svg"
   xmlns:sodipodi="http://sodipodi.sourceforge.net/DTD/sodipodi-0.dtd"
   xmlns:inkscape="http://www.inkscape.org/namespaces/inkscape"
   width="210mm"
   height="297mm"
   id="svg2"
   version="1.1"
   inkscape:version="0.47 r22583"
   sodipodi:docname="MMM-Logo-Hintergrund.svg">
  <defs
     id="defs4">
    <inkscape:perspective
       sodipodi:type="inkscape:persp3d"
       inkscape:vp_x="0 : 526.18109 : 1"
       inkscape:vp_y="0 : 1000 : 0"
       inkscape:vp_z="744.09448 : 526.18109 : 1"
       inkscape:persp3d-origin="372.04724 : 350.78739 : 1"
       id="perspective8" />
    <inkscape:perspective
       id="perspective2834"
       inkscape:persp3d-origin="0.5 : 0.33333333 : 1"
       inkscape:vp_z="1 : 0.5 : 1"
       inkscape:vp_y="0 : 1000 : 0"
       inkscape:vp_x="0 : 0.5 : 1"
       sodipodi:type="inkscape:persp3d" />
  </defs>
  <sodipodi:namedview
     id="base"
     pagecolor="#ffffff"
     bordercolor="#666666"
     borderopacity="1.0"
     inkscape:pageopacity="0.0"
     inkscape:pageshadow="2"
     inkscape:zoom="1.9878378"
     inkscape:cx="328.90927"
     inkscape:cy="926.86479"
     inkscape:document-units="px"
     inkscape:current-layer="layer1"
     showgrid="false"
     inkscape:window-width="1571"
     inkscape:window-height="972"
     inkscape:window-x="88"
     inkscape:window-y="6"
     inkscape:window-maximized="0" />
  <metadata
     id="metadata7">
    <rdf:RDF>
      <cc:Work
         rdf:about="">
        <dc:format>image/svg+xml</dc:format>
        <dc:type
           rdf:resource="http://purl.org/dc/dcmitype/StillImage" />
        <dc:title />
      </cc:Work>
    </rdf:RDF>
  </metadata>
  <g
     inkscape:label="Ebene 1"
     inkscape:groupmode="layer"
     id="layer1">
    <path
       style="font-size:218.67565918px;font-style:normal;font-weight:normal;fill:#cccccc;fill-opacity:1;stroke:none;font-family:Bitstream Vera Sans"
       d="M 353.53125 0.0625 L 341.34375 43.71875 C 334.52103 38.252166 324.97217 35.500099 312.625 35.5 C 304.20874 35.500116 296.29968 36.94989 288.90625 39.8125 C 281.51253 42.675334 273.3103 47.346214 264.34375 53.8125 C 261.27608 48.087154 256.62797 43.608303 250.375 40.375 C 244.12181 37.141919 236.49784 35.500116 227.53125 35.5 C 219.74431 35.500116 212.4135 36.894677 205.53125 39.65625 C 198.64887 42.418047 191.76535 46.270454 184.84375 51.1875 L 184.84375 38.65625 L 184.53125 38.65625 L 184.53125 0.15625 L 106.4375 0.15625 L 92.75 60.71875 L 84.5 27.71875 C 81.938601 17.142749 79.526624 7.9549202 77.25 0.15625 L -0.3125 0.15625 L -0.3125 129.875 L 52.0625 129.875 L 52.0625 44.3125 L 74.125 129.875 L 111.25 129.875 L 132.1875 42.3125 L 132.1875 129.875 L 162.65625 129.875 L 162.65625 151.5 L 184.84375 151.5 L 184.84375 67.25 C 190.90015 63.275953 196.96667 59.997204 203.0625 57.4375 C 209.15821 54.877984 215.22473 53.593848 221.28125 53.59375 C 227.65223 53.593848 232.52399 54.333145 235.90625 55.78125 C 239.28832 57.229546 241.90958 59.384938 243.71875 62.28125 C 245.3704 64.975666 246.42614 68.58326 246.9375 73.0625 C 247.44865 77.541896 247.71864 82.26556 247.71875 87.25 L 247.71875 151.5 L 269.90625 151.5 L 269.90625 79.25 C 269.90612 77.229327 269.81343 75.210752 269.65625 73.15625 C 269.49881 71.101904 269.29834 69.299322 269.0625 67.75 C 275.27612 63.641236 281.50485 60.254491 287.71875 57.59375 C 293.93235 54.933196 300.12983 53.593848 306.34375 53.59375 C 312.71464 53.593848 317.61765 54.330716 321 55.8125 C 324.38199 57.294475 326.972 59.509938 328.78125 62.40625 C 330.43282 65.100666 331.5198 68.674581 332.03125 73.1875 C 332.14163 74.16225 332.22595 75.165796 332.3125 76.15625 L 315.46875 136.46875 L 332.78125 136.46875 L 332.78125 151.5 L 354.96875 151.5 L 354.96875 136.46875 L 394.03125 136.46875 L 403.78125 82.4375 C 404.39023 78.276102 404.97284 74.130657 405.53125 70.03125 C 406.08948 65.931976 406.61735 61.786142 407.125 57.5625 C 408.03852 61.475586 409.31321 65.621225 410.9375 70 C 412.5616 74.378908 414.64959 79.031154 417.1875 84 L 442.75 136.46875 L 490.40625 136.46875 L 516 84 C 518.43609 79.031154 520.48109 74.378908 522.15625 70 C 523.831 65.621225 525.11743 61.475586 526.03125 57.5625 C 526.43709 61.724031 526.95321 65.86967 527.5625 70 C 528.17136 74.130463 528.79696 78.276102 529.40625 82.4375 L 539.125 136.46875 L 617.71875 136.46875 L 582.375 0.0625 L 499.84375 0.0625 L 483.25 33.25 C 479.18934 41.386674 475.93614 48.697153 473.5 55.21875 C 471.06355 61.74051 469.24924 67.879969 468.03125 73.65625 L 466.65625 73.65625 C 465.13341 64.463851 461.01217 52.786068 454.3125 38.5625 C 453.29724 36.450816 452.53867 34.837243 452.03125 33.78125 L 436.21875 0.0625 L 353.53125 0.0625 z "
       id="text2814" />
  </g>
</svg>
