<?xml version="1.0" encoding="UTF-8" standalone="no"?>
<!-- Created with Inkscape (http://www.inkscape.org/) -->
<svg
   xmlns:xml="http://www.w3.org/XML/1998/namespace"
   xmlns:dc="http://purl.org/dc/elements/1.1/"
   xmlns:cc="http://web.resource.org/cc/"
   xmlns:rdf="http://www.w3.org/1999/02/22-rdf-syntax-ns#"
   xmlns:svg="http://www.w3.org/2000/svg"
   xmlns="http://www.w3.org/2000/svg"
   xmlns:xlink="http://www.w3.org/1999/xlink"
   xmlns:sodipodi="http://inkscape.sourceforge.net/DTD/sodipodi-0.dtd"
   xmlns:inkscape="http://www.inkscape.org/namespaces/inkscape"
   sodipodi:docname="scribusicon-3a.svg"
   sodipodi:docbase="/home/owen/images"
   inkscape:version="0.41+cvs"
   sodipodi:version="0.32"
   id="svg1507"
   height="297mm"
   width="210mm"
   inkscape:export-filename="/home/owen/images/scribusicon-new3.png"
   inkscape:export-xdpi="90.000000"
   inkscape:export-ydpi="90.000000">
  <defs
     id="defs3">
    <linearGradient
       id="aigrd15"
       gradientUnits="userSpaceOnUse"
       x1="67.125504"
       y1="40.067902"
       x2="67.125504"
       y2="105.63970">
      <stop
         offset="0.0056"
         style="stop-color:#9DBFF5"
         id="stop208" />
      <stop
         offset="0.3764"
         style="stop-color:#266EE0"
         id="stop210" />
      <stop
         offset="1"
         style="stop-color:#A16791"
         id="stop212" />
    </linearGradient>
    <linearGradient
       id="aigrd27"
       gradientUnits="userSpaceOnUse"
       x1="95.389603"
       y1="63.289101"
       x2="95.389603"
       y2="9.2811003">
      <stop
         offset="0"
         style="stop-color:#FFFFFF"
         id="stop363" />
      <stop
         offset="0.3732"
         style="stop-color:#E6E6E6"
         id="stop365" />
      <stop
         offset="0.7244"
         style="stop-color:#D7D7D7"
         id="stop367" />
      <stop
         offset="1"
         style="stop-color:#D1D1D1"
         id="stop369" />
    </linearGradient>
    <linearGradient
       id="aigrd26"
       gradientUnits="userSpaceOnUse"
       x1="15.478500"
       y1="69.188499"
       x2="40.363998"
       y2="69.188499"
       gradientTransform="matrix(0.771100,0.636700,-0.460800,0.558000,106.3628,-27.47420)">
      <stop
         offset="0"
         style="stop-color:#999999"
         id="stop352" />
      <stop
         offset="0.4494"
         style="stop-color:#CCCCCC"
         id="stop354" />
      <stop
         offset="0.5506"
         style="stop-color:#CCCCCC"
         id="stop356" />
      <stop
         offset="1"
         style="stop-color:#999999"
         id="stop358" />
    </linearGradient>
    <linearGradient
       id="aigrd25"
       gradientUnits="userSpaceOnUse"
       x1="32.054199"
       y1="80.706497"
       x2="78.679703"
       y2="80.706497">
      <stop
         offset="0"
         style="stop-color:#E3B246"
         id="stop327" />
      <stop
         offset="0.5056"
         style="stop-color:#FFDF7D"
         id="stop329" />
      <stop
         offset="1"
         style="stop-color:#E3B246"
         id="stop331" />
    </linearGradient>
    <linearGradient
       inkscape:collect="always"
       xlink:href="#aigrd25"
       id="linearGradient2116"
       gradientUnits="userSpaceOnUse"
       x1="32.054199"
       y1="80.706497"
       x2="78.679703"
       y2="80.706497" />
    <linearGradient
       inkscape:collect="always"
       xlink:href="#aigrd26"
       id="linearGradient2118"
       gradientUnits="userSpaceOnUse"
       gradientTransform="matrix(0.771100,0.636700,-0.460800,0.558000,106.3628,-27.47420)"
       x1="15.478500"
       y1="69.188499"
       x2="40.363998"
       y2="69.188499" />
    <linearGradient
       inkscape:collect="always"
       xlink:href="#aigrd27"
       id="linearGradient2120"
       gradientUnits="userSpaceOnUse"
       x1="95.389603"
       y1="63.289101"
       x2="95.389603"
       y2="9.2811003" />
    <linearGradient
       inkscape:collect="always"
       xlink:href="#aigrd15"
       id="linearGradient2122"
       gradientUnits="userSpaceOnUse"
       x1="67.125504"
       y1="40.067902"
       x2="67.125504"
       y2="105.63970"
       gradientTransform="matrix(0.961468,0.000000,0.000000,1.000000,1.275126,2.331469e-15)" />
  </defs>
  <sodipodi:namedview
     inkscape:window-y="146"
     inkscape:window-x="74"
     inkscape:window-height="595"
     inkscape:window-width="772"
     inkscape:current-layer="layer4"
     inkscape:document-units="px"
     inkscape:cy="520.00000"
     inkscape:cx="372.04725"
     inkscape:zoom="0.35000000"
     inkscape:pageshadow="2"
     inkscape:pageopacity="0.0"
     borderopacity="1.0"
     bordercolor="#666666"
     pagecolor="#ffffff"
     id="base" />
  <metadata
     id="metadata4">
    <rdf:RDF
       id="RDF5">
      <cc:Work
         id="Work6"
         rdf:about="">
        <dc:format
           id="format7">image/svg+xml</dc:format>
        <dc:type
           rdf:resource="http://purl.org/dc/dcmitype/StillImage"
           id="type9" />
      </cc:Work>
    </rdf:RDF>
  </metadata>
  <g
     inkscape:label="s"
     id="layer2"
     inkscape:groupmode="layer">
    <g
       transform="matrix(4.352888,0.000000,0.000000,4.789152,173.3627,178.5828)"
       id="Layer_x0020_20"
       style="fill-rule:nonzero;stroke:#000000;stroke-miterlimit:4.0000000">
      <linearGradient
         id="linearGradient1579"
         gradientUnits="userSpaceOnUse"
         x1="67.125504"
         y1="40.067902"
         x2="67.125504"
         y2="105.63970">
        <stop
           offset="0.0056"
           style="stop-color:#9DBFF5"
           id="stop1581" />
        <stop
           offset="0.3764"
           style="stop-color:#266EE0"
           id="stop1583" />
        <stop
           offset="1"
           style="stop-color:#A16791"
           id="stop1585" />
      </linearGradient>
      <path
         style="opacity:0.80000001;fill:url(#linearGradient2122);stroke:none"
         d="M 33.093000,107.43700 C 33.093000,107.43700 96.612411,113.43700 98.535348,94.437000 C 100.55059,74.522000 59.266093,70.536000 58.153674,54.437000 C 57.580639,46.133000 73.789074,37.380000 86.952538,31.671000 L 49.936965,30.999095 C 42.933629,36.125095 37.162896,46.986000 38.924306,58.436000 C 42.770180,83.436000 91.805069,82.436000 88.920664,95.436000 C 85.502644,110.84200 33.093000,107.43600 33.093000,107.43600 L 33.093000,107.43700 z "
         id="path214"
         sodipodi:nodetypes="ccccccccc" />
    </g>
  </g>
  <g
     inkscape:label="shad"
     id="layer3"
     inkscape:groupmode="layer">
    <g
       id="Layer_x0020_10_x0020_copy"
       style="opacity:0.74500000;fill:#030305;fill-opacity:1.0000000;fill-rule:nonzero;stroke:#000000;stroke-miterlimit:4.0000000"
       transform="matrix(3.566710,0.000000,0.000000,4.364082,193.3499,223.2441)">
      <path
         style="opacity:0.29999998;stroke:none"
         d="M 117.18940,56.140999 C 101.26827,58.228262 87.592490,66.468976 75.051514,75.757316 C 69.631239,79.853282 64.981189,83.550842 58.483601,86.003242 C 52.213187,89.225732 44.879170,91.973944 39.269332,95.490997 C 40.254037,101.77946 23.298301,109.72727 36.500154,107.44317 C 45.246096,101.46853 57.675892,104.62948 65.610737,98.011749 C 70.390305,94.300499 75.169873,90.589249 79.949441,86.877998 C 92.578974,82.338916 103.81234,75.249587 115.35554,68.214000 C 115.85352,64.554177 116.81122,57.454376 116.40480,56.141494 L 117.18940,56.140999 z M 53.416570,96.457001 C 46.844317,98.314812 53.015328,92.227009 53.416570,96.457001 z "
         id="path310"
         sodipodi:nodetypes="cccccccccccc" />
    </g>
  </g>
  <g
     id="layer1"
     inkscape:groupmode="layer"
     inkscape:label="Layer 1">
    <g
       transform="matrix(3.328545,0.000000,0.000000,3.330000,195.4867,330.3039)"
       id="Layer_x0020_10"
       style="fill:#9c7738;fill-rule:nonzero;stroke:#000000;stroke-miterlimit:4.0000000">
      <path
         style="stroke:none"
         d="M 67.985000,53.801000 L 38.973000,82.003000 L 39.058000,82.647000 C 39.063000,82.682000 39.851000,86.469000 37.748000,92.372000 C 35.587000,98.437000 31.052000,104.23400 31.006000,104.29100 L 30.157000,105.36900 L 34.284000,108.43600 L 35.098000,107.63700 C 35.170000,107.56600 42.377000,100.53000 48.644000,97.817000 C 55.082000,95.031000 60.564000,93.608000 60.616000,93.591000 L 61.051000,93.448000 L 80.460000,62.597000 L 68.841000,52.912000 L 67.985000,53.801000 z M 69.048000,56.541000 C 70.489000,57.729000 75.486000,61.949000 76.899000,63.115000 C 75.659000,64.959000 59.822000,90.501000 59.348000,91.206000 C 57.971000,91.675000 53.068000,92.998000 47.587000,95.372000 C 42.089000,97.751000 36.200000,102.95800 34.061000,104.94800 C 33.993000,104.89800 33.991000,104.89700 33.922000,104.84500 C 35.395000,102.81400 38.500000,98.211000 40.261000,93.268000 C 42.089000,88.138000 41.816000,84.359000 41.751000,82.963000 C 42.525000,82.160000 67.465000,58.184000 69.049000,56.541000 L 69.048000,56.541000 z "
         id="path324" />
      <linearGradient
         id="linearGradient1533"
         gradientUnits="userSpaceOnUse"
         x1="32.054199"
         y1="80.706497"
         x2="78.679703"
         y2="80.706497">
        <stop
           offset="0"
           style="stop-color:#E3B246"
           id="stop1535" />
        <stop
           offset="0.5056"
           style="stop-color:#FFDF7D"
           id="stop1537" />
        <stop
           offset="1"
           style="stop-color:#E3B246"
           id="stop1539" />
      </linearGradient>
      <path
         style="fill:url(#linearGradient2116);stroke:none"
         d="M 78.680000,62.855000 L 68.945000,54.726000 L 40.379000,82.465000 C 40.379000,82.465000 41.269000,86.464000 39.004000,92.819000 C 36.739000,99.174000 32.054000,105.11600 32.054000,105.11600 L 34.164000,106.68500 C 34.164000,106.68500 41.539000,99.439000 48.116000,96.592000 C 54.692000,93.747000 60.201000,92.323000 60.201000,92.323000 L 78.680000,62.855000 z M 50.046000,85.128000 C 49.113000,84.429000 48.923000,83.107000 49.623000,82.173000 C 50.322000,81.241000 51.645000,81.051000 52.578000,81.750000 C 53.511000,82.450000 53.700000,83.773000 53.000000,84.706000 C 52.301000,85.639000 50.978000,85.828000 50.045000,85.128000 L 50.046000,85.128000 z "
         id="path333" />
      <g
         id="g335">
        <path
           style="fill:#ffefbd;stroke:none"
           d="M 53.110000,81.040000 C 51.787000,80.047000 49.903000,80.317000 48.911000,81.641000 C 47.919000,82.964000 48.189000,84.848000 49.513000,85.841000 C 50.836000,86.832000 52.720000,86.562000 53.712000,85.240000 C 54.704000,83.916000 54.435000,82.032000 53.110000,81.040000 z M 50.046000,85.128000 C 49.113000,84.429000 48.923000,83.107000 49.623000,82.173000 C 50.322000,81.241000 51.645000,81.051000 52.578000,81.750000 C 53.511000,82.450000 53.700000,83.773000 53.000000,84.706000 C 52.301000,85.639000 50.978000,85.828000 50.045000,85.128000 L 50.046000,85.128000 z "
           id="path337" />
        <path
           style="fill:#fff6db;stroke:none"
           d="M 78.680000,62.855000 L 68.945000,54.726000 L 40.379000,82.465000 C 40.379000,82.465000 41.269000,86.464000 39.004000,92.819000 C 36.739000,99.174000 32.054000,105.11600 32.054000,105.11600 L 34.164000,106.68500 C 34.164000,106.68500 41.539000,99.439000 48.116000,96.592000 C 54.692000,93.747000 60.201000,92.323000 60.201000,92.323000 L 78.680000,62.855000 z M 47.763000,95.779000 C 42.064000,98.245000 35.930000,103.79500 34.093000,105.52500 C 33.771000,105.28600 33.657000,105.20200 33.302000,104.93800 C 34.611000,103.16900 37.982000,98.337000 39.842000,93.118000 C 41.748000,87.768000 41.499000,84.056000 41.326000,82.784000 C 41.956000,82.173000 67.900000,56.980000 68.990000,55.922000 C 69.998000,56.764000 76.536000,62.224000 77.515000,63.041000 C 76.735000,64.285000 59.988000,90.993000 59.635000,91.558000 C 58.330000,91.917000 53.410000,93.336000 47.763000,95.780000 L 47.763000,95.779000 z "
           id="path339" />
      </g>
      <path
         style="opacity:0.49999997;fill:#ffefbd;stroke:none"
         d="M 48.963000,96.233000 L 74.679000,59.515000 L 70.702000,56.194000 C 64.452000,62.078000 48.316000,77.286000 40.549000,84.788000 C 40.536000,86.585000 40.242000,89.347000 39.005000,92.820000 C 36.740000,99.175000 32.055000,105.11700 32.055000,105.11700 L 34.165000,106.68600 C 34.165000,106.68600 41.540000,99.440000 48.117000,96.593000 C 48.401000,96.470000 48.683000,96.350000 48.964000,96.233000 L 48.963000,96.233000 z M 50.046000,85.128000 C 49.113000,84.429000 48.923000,83.107000 49.623000,82.173000 C 50.322000,81.241000 51.645000,81.051000 52.578000,81.750000 C 53.511000,82.450000 53.700000,83.773000 53.000000,84.706000 C 52.301000,85.639000 50.978000,85.828000 50.045000,85.128000 L 50.046000,85.128000 z "
         id="path341" />
      <path
         style="fill:#fff6db;stroke:none"
         d="M 32.049000,105.12500 L 32.850000,105.72400 L 49.588000,85.245000 L 48.808000,84.618000 L 32.049000,105.12500 L 32.049000,105.12500 z "
         id="path343" />
      <path
         style="stroke:none"
         d="M 32.731000,105.63600 L 33.441000,106.16800 L 50.180000,85.689000 L 49.490000,85.129000 L 32.731000,105.63600 z "
         id="path345" />
      <path
         style="stroke:none"
         d="M 48.911000,81.641000 C 47.919000,82.964000 48.189000,84.848000 49.513000,85.841000 C 50.836000,86.832000 52.720000,86.562000 53.712000,85.240000 C 54.704000,83.916000 54.435000,82.032000 53.110000,81.040000 C 51.787000,80.047000 49.903000,80.317000 48.911000,81.641000 z M 49.800000,82.307000 C 50.425000,81.474000 51.611000,81.303000 52.445000,81.928000 C 53.278000,82.552000 53.447000,83.738000 52.823000,84.572000 C 52.198000,85.405000 51.012000,85.575000 50.178000,84.950000 C 49.345000,84.325000 49.175000,83.140000 49.800000,82.306000 L 49.800000,82.307000 z "
         id="path347" />
      <g
         id="g349">
        <linearGradient
           id="linearGradient1550"
           gradientUnits="userSpaceOnUse"
           x1="15.478500"
           y1="69.188499"
           x2="40.363998"
           y2="69.188499"
           gradientTransform="matrix(0.771100,0.636700,-0.460800,0.558000,106.3628,-27.47420)">
          <stop
             offset="0"
             style="stop-color:#999999"
             id="stop1552" />
          <stop
             offset="0.4494"
             style="stop-color:#CCCCCC"
             id="stop1554" />
          <stop
             offset="0.5506"
             style="stop-color:#CCCCCC"
             id="stop1556" />
          <stop
             offset="1"
             style="stop-color:#999999"
             id="stop1558" />
        </linearGradient>
        <path
           style="fill:url(#linearGradient2118);stroke:none"
           d="M 80.447000,64.857000 C 80.447000,64.857000 78.499000,66.169000 72.160000,60.934000 C 65.820000,55.699000 67.150000,53.043000 67.150000,53.043000 C 67.150000,53.043000 81.340000,32.020000 92.706000,18.257000 C 104.07100,4.4930000 123.62900,0.0000000 123.62900,0.0000000 C 123.62900,0.0000000 122.06100,19.349000 110.52400,32.971000 C 96.182000,49.905000 80.447000,64.857000 80.447000,64.857000 z "
           id="path360" />
        <linearGradient
           id="linearGradient1561"
           gradientUnits="userSpaceOnUse"
           x1="95.389603"
           y1="63.289101"
           x2="95.389603"
           y2="9.2811003">
          <stop
             offset="0"
             style="stop-color:#FFFFFF"
             id="stop1563" />
          <stop
             offset="0.3732"
             style="stop-color:#E6E6E6"
             id="stop1565" />
          <stop
             offset="0.7244"
             style="stop-color:#D7D7D7"
             id="stop1567" />
          <stop
             offset="1"
             style="stop-color:#D1D1D1"
             id="stop1569" />
        </linearGradient>
        <path
           style="fill:url(#linearGradient2120);stroke:none"
           d="M 123.62900,0.0000000 C 123.62900,0.0000000 104.07000,4.4930000 92.706000,18.257000 C 81.340000,32.020000 67.150000,53.044000 67.150000,53.044000 C 67.150000,53.044000 65.820000,55.699000 72.160000,60.935000 C 78.499000,66.169000 80.447000,64.858000 80.447000,64.858000 C 80.447000,64.858000 96.182000,49.905000 110.52400,32.972000 C 122.06100,19.349000 123.62900,0.0000000 123.62900,0.0000000 z M 108.47900,31.260000 C 95.456000,46.637000 81.441000,60.244000 79.158000,62.437000 C 78.688000,62.371000 77.089000,61.940000 73.718000,59.156000 C 70.004000,56.090000 69.760000,54.497000 69.760000,54.130000 C 71.242000,51.946000 84.158000,32.797000 94.762000,19.955000 C 102.51600,10.565000 114.35700,5.5780000 120.61500,3.4630000 C 119.47300,9.7380000 116.42300,21.645000 108.80600,30.870000 C 108.69900,31.000000 108.59000,31.131000 108.48000,31.260000 L 108.47900,31.260000 z "
           id="path371" />
        <path
           style="fill:#757575;stroke:none"
           d="M 123.62900,0.0000000 C 123.62900,0.0000000 104.07000,4.4930000 92.706000,18.257000 C 81.340000,32.020000 66.861000,53.623000 66.861000,53.623000 C 66.861000,53.623000 65.531000,56.278000 71.871000,61.514000 C 78.210000,66.748000 80.158000,65.437000 80.158000,65.437000 C 80.158000,65.437000 96.181000,49.905000 110.52400,32.972000 C 122.06100,19.349000 123.62900,0.0000000 123.62900,0.0000000 z M 109.50100,32.115000 C 95.914000,48.160000 80.891000,62.595000 79.576000,63.852000 C 79.279000,63.918000 77.488000,64.083000 72.774000,60.191000 C 67.878000,56.147000 68.197000,54.045000 68.268000,53.765000 C 69.180000,52.417000 82.846000,32.291000 93.734000,19.105000 C 102.66200,8.2930000 116.90400,3.2410000 122.17700,1.6670000 C 121.41100,6.9280000 118.62100,21.075000 109.83300,31.719000 C 109.72300,31.851000 109.61200,31.983000 109.50200,32.115000 L 109.50100,32.115000 z "
           id="path373" />
      </g>
    </g>
  </g>
  <g
     inkscape:label="text"
     id="layer4"
     inkscape:groupmode="layer">
    <text
       transform="scale(0.669750,1.493094)"
       id="text1366"
       y="383.0827"
       x="916.26447"
       style="font-size:161.33527;font-style:normal;font-weight:normal;fill:#000000;fill-opacity:1.0000000;stroke:none;stroke-width:1.0000000px;stroke-linecap:butt;stroke-linejoin:miter;stroke-opacity:1.0000000;font-family:Bitstream Vera Sans"
       xml:space="preserve"><tspan
         y="383.08270"
         x="916.26447"
         id="tspan1368"
         sodipodi:role="line">Scribus Made</tspan></text>
  </g>
</svg>
